<svg xmlns="http://www.w3.org/2000/svg" viewBox="0 0 256 256">
<defs>
<linearGradient id="grad1" x1="0%" y1="0%" x2="100%" y2="100%">
<stop offset="0%" style="stop-color:#8B5CF6;stop-opacity:1"/>
<stop offset="100%" style="stop-color:#3B82F6;stop-opacity:1"/>
</linearGradient>
<linearGradient id="grad2" x1="0%" y1="0%" x2="100%" y2="100%">
<stop offset="0%" style="stop-color:#A78BFA;stop-opacity:1"/>
<stop offset="100%" style="stop-color:#60A5FA;stop-opacity:1"/>
</linearGradient>
</defs>
<rect width="256" height="256" fill="#1E1B4B"/>
<circle cx="128" cy="128" r="80" fill="url(#grad1)"/>
<circle cx="128" cy="128" r="60" fill="#1E1B4B"/>
<circle cx="128" cy="128" r="45" fill="url(#grad2)"/>
<circle cx="128" cy="128" r="25" fill="#1E1B4B" opacity="0.5"/>
<path d="M 60 40 L 196 40 L 196 60 L 60 60 Z" fill="url(#grad1)" opacity="0.9"/>
<rect x="70" y="40" width="12" height="20" fill="#1E1B4B"/>
<rect x="95" y="40" width="12" height="20" fill="#1E1B4B"/>
<rect x="120" y="40" width="12" height="20" fill="#1E1B4B"/>
<rect x="145" y="40" width="12" height="20" fill="#1E1B4B"/>
<rect x="170" y="40" width="12" height="20" fill="#1E1B4B"/>
<path d="M 60 196 L 196 196 L 196 216 L 60 216 Z" fill="url(#grad1)" opacity="0.9"/>
<rect x="70" y="196" width="12" height="20" fill="#1E1B4B"/>
<rect x="95" y="196" width="12" height="20" fill="#1E1B4B"/>
<rect x="120" y="196" width="12" height="20" fill="#1E1B4B"/>
<rect x="145" y="196" width="12" height="20" fill="#1E1B4B"/>
<rect x="170" y="196" width="12" height="20" fill="#1E1B4B"/>
</svg>